<svg xmlns="http://www.w3.org/2000/svg" id="Agrupar_36" width="360" height="143" data-name="Agrupar 36" viewBox="0 0 360 143">
    <defs>
        <style>
            .cls-1{fill:url(#linear-gradient)}.cls-2{clip-path:url(#clip-path)}.cls-3{opacity:.08}.cls-4{opacity:.3}.cls-5{fill:none}.cls-6{fill:#fff}
        </style>
        <linearGradient id="linear-gradient" x1=".25" x2=".5" y1="-.196" y2=".899" gradientUnits="objectBoundingBox">
            <stop offset="0" stop-color="#7ac946"/>
            <stop offset="1" stop-color="#1c7d1c"/>
        </linearGradient>
        <clipPath id="clip-path">
            <path id="Retângulo_19" d="M0 0h360v143H0z" class="cls-1" data-name="Retângulo 19"/>
        </clipPath>
    </defs>
    <g id="Grupo_de_máscara_2" class="cls-2" data-name="Grupo de máscara 2">
        <path id="Retângulo_20" d="M0 0h360v143H0z" class="cls-1" data-name="Retângulo 20"/>
        <g id="Agrupar_35" class="cls-3" data-name="Agrupar 35" transform="translate(-32.057 160.662)">
            <g id="Agrupar_33" class="cls-4" data-name="Agrupar 33" transform="translate(-25.183 -277.005)">
                <path id="Caminho_20" d="M1294 508.577a6.214 6.214 0 0 1 .9-4.255l-94.736-68.914a6.208 6.208 0 0 1-3.3 2.071l15.841 88.722z" class="cls-5" data-name="Caminho 20" transform="translate(-752.899 -191.423)"/>
                <path id="Caminho_21" d="M993.823 549.071l96-20.813-15.843-88.758a6.206 6.206 0 0 1-4.027-.927l-78.139 107.419a6.2 6.2 0 0 1 2.009 3.079z" class="cls-5" data-name="Caminho 21" transform="translate(-630.809 -193.309)"/>
                <path id="Caminho_22" d="M1282.14 883.662a6.211 6.211 0 0 1 1.668-1.571L1225.917 778a6.263 6.263 0 0 1-4.01.454l-19.922 69.051 79.724 36.849a6.218 6.218 0 0 1 .431-.692z" class="cls-5" data-name="Caminho 22" transform="translate(-755.946 -395.405)"/>
                <path id="Caminho_23" d="M1322.671 359.814L1208.1 385.447a6.236 6.236 0 0 1-.218 2.845l100.227 39z" class="cls-5" data-name="Caminho 23" transform="translate(-759.455 -146.415)"/>
                <path id="Caminho_24" d="M1323.607 839.867l11.964-131.112-69.992 20.978a6.209 6.209 0 0 1-2.7 6.64l57.89 104.09a6.272 6.272 0 0 1 2.838-.596z" class="cls-5" data-name="Caminho 24" transform="translate(-792.204 -354.176)"/>
                <path id="Caminho_25" d="M1306.932 471.113l-100.346-39.046a6.237 6.237 0 0 1-.388.7l94.217 68.537z" class="cls-5" data-name="Caminho 25" transform="translate(-758.455 -189.434)"/>
                <path id="Caminho_26" d="M737.267 429.818c-.089.123-.186.236-.283.35l95.307 108.267a6.249 6.249 0 0 1 3.963-1.3l9.956-110.907-107.756-.1a6.2 6.2 0 0 1-1.187 3.69z" class="cls-5" data-name="Caminho 26" transform="translate(-479.082 -185.9)"/>
                <path id="Caminho_27" d="M1062.6 426.447l-68.308-.064-9.963 110.979a6.2 6.2 0 0 1 2.373.895l78.139-107.417a6.225 6.225 0 0 1-2.241-4.393z" class="cls-5" data-name="Caminho 27" transform="translate(-626.355 -186.05)"/>
                <path id="Caminho_28" d="M615.212 153.863l-22.537 25.419-25.063 28.269a6.158 6.158 0 0 1 3.279 2.8l53.575-8.017-5.243-47.168a6.206 6.206 0 0 1-3.868-1.185c-.05-.039-.094-.081-.143-.118z" class="cls-5" data-name="Caminho 28" transform="translate(-378.237 -23.79)"/>
                <path id="Caminho_29" d="M1077.376 314.389a6.131 6.131 0 0 1 1.9-4.086l-59.676-70.764a6.251 6.251 0 0 1-3.859 1.215l-6.6 73.572z" class="cls-5" data-name="Caminho 29" transform="translate(-641.123 -74.802)"/>
                <path id="Caminho_30" d="M823.932 179.8a6.243 6.243 0 0 1 .087-1.678l-121.964-31.36a6.232 6.232 0 0 1-4.888 4.1l5.237 47.122z" class="cls-5" data-name="Caminho 30" transform="translate(-455.375 -19.562)"/>
                <path id="Caminho_31" d="M634.993 330.359l-6.081-54.71-53.3 7.977a6.228 6.228 0 0 1-.682 5.849l56.443 42.617a6.222 6.222 0 0 1 3.62-1.733z" class="cls-5" data-name="Caminho 31" transform="translate(-382.594 -96.302)"/>
                <path id="Caminho_32" d="M583.757 353.977l-56.4-42.586a6.239 6.239 0 0 1-6.331 1.8l-25.156 70.377 86.693-24.439a6.218 6.218 0 0 1 1.05-4.969c.044-.06.096-.121.144-.183z" class="cls-5" data-name="Caminho 32" transform="translate(-335.52 -117.583)"/>
                <path id="Caminho_33" d="M738.373 309.952a6.251 6.251 0 0 1 .855 2.428l107.882.1 6.611-73.645a6.21 6.21 0 0 1-4.014-2.394l-77.288 51.03z" class="cls-5" data-name="Caminho 33" transform="translate(-479.909 -72.958)"/>
                <path id="Caminho_34" d="M716.423 303.367a6.175 6.175 0 0 1 4.785 2.324l105.176-69.443 6.186-4.084a6.238 6.238 0 0 1-.676-1.771l-121.56 18.191z" class="cls-5" data-name="Caminho 34" transform="translate(-463.214 -69.356)"/>
                <path id="Caminho_35" d="M564.558 103.922l-5.922 73.683a6.257 6.257 0 0 1 2.772-.04l19.892-22.431 27.965-31.542a6.244 6.244 0 0 1-1.661-5.8z" class="cls-5" data-name="Caminho 35" transform="translate(-372.893 5.945)"/>
                <path id="Caminho_36" d="M1529.131 632.445l-102.174 30.624-11.993 131.438a6.194 6.194 0 0 1 2.3.853l113.716-160.236a6.2 6.2 0 0 1-1.849-2.679z" class="cls-5" data-name="Caminho 36" transform="translate(-882.755 -308.741)"/>
                <path id="Caminho_37" d="M1117.149 979.749l16.514-57.239-41.719-19.283a6.084 6.084 0 0 1-3.078 2.776l25.31 73.821a6.252 6.252 0 0 1 2.973-.075z" class="cls-5" data-name="Caminho 37" transform="translate(-688.594 -469.966)"/>
                <path id="Caminho_38" d="M1177.172 951.736l-16.48 57.121a6.2 6.2 0 0 1 3.858 4.079l91.893-21.157a6.228 6.228 0 0 1 .341-3.246z" class="cls-5" data-name="Caminho 38" transform="translate(-731.36 -498.848)"/>
                <path id="Caminho_39" d="M1537.479 641.119a6.214 6.214 0 0 1-1.323-.6l-.3.078-113.577 160.04a6.209 6.209 0 0 1 2.2 3.7l74.661-8.849z" class="cls-5" data-name="Caminho 39" transform="translate(-887.113 -313.548)"/>
                <path id="Caminho_40" d="M1554.677 465.96a6.148 6.148 0 0 1 1.412-1.939l-84.052-103.278-14.549 67.4z" class="cls-5" data-name="Caminho 40" transform="translate(-908.074 -146.968)"/>
                <path id="Caminho_41" d="M1447.552 529.307l-6.461 29.932a6.23 6.23 0 0 1 10.726 4.234l92.563 4.7a6.2 6.2 0 0 1 .243-1.09z" class="cls-5" data-name="Caminho 41" transform="translate(-898.311 -247.332)"/>
                <path id="Caminho_42" d="M1422.3 1054.046l23.589 33.153 45.043-31.444a6.255 6.255 0 0 1-.894-3.094l-65.475-2.782a6.155 6.155 0 0 1-2.264 4.167z" class="cls-5" data-name="Caminho 42" transform="translate(-887.124 -557.283)"/>
                <path id="Caminho_43" d="M997.211 683.012a6.252 6.252 0 0 1 .03 1.608l98.019 17.315a6.213 6.213 0 0 1 4.217-4.474l-6.294-35.255z" class="cls-5" data-name="Caminho 43" transform="translate(-634.023 -326.461)"/>
                <path id="Caminho_44" d="M991.946 721.792a6.221 6.221 0 0 1-1.691 1.586l22.332 40.572 78.535-24.855a6.27 6.27 0 0 1-.169-1.851l-98-17.623a6.206 6.206 0 0 1-1.007 2.171z" class="cls-5" data-name="Caminho 44" transform="translate(-629.881 -360.646)"/>
                <path id="Caminho_45" d="M1064.872 815.674a6.254 6.254 0 0 1 .829.73l60.176-44.971a6.2 6.2 0 0 1-1.061-1.776l-78.384 24.807 11.519 20.928a6.241 6.241 0 0 1 6.921.282z" class="cls-5" data-name="Caminho 45" transform="translate(-663.33 -390.437)"/>
                <path id="Caminho_46" d="M1546.18 620.426l-92.191-4.676a6.231 6.231 0 0 1-6.359 5.517l-2.83 30.993 101.88-30.536a6.28 6.28 0 0 1-.137-1.279z" class="cls-5" data-name="Caminho 46" transform="translate(-900.521 -298.8)"/>
                <path id="Caminho_47" d="M1267.436 677.305a6.246 6.246 0 0 1 .626 1.233l70.3-21.07 2.858-31.319a6.161 6.161 0 0 1-3.742-2.073z" class="cls-5" data-name="Caminho 47" transform="translate(-794.916 -303.757)"/>
                <path id="Caminho_48" d="M1236.372 635.838l6.291 35.234a6.195 6.195 0 0 1 5.767 2.062l70.062-53.2a6.21 6.21 0 0 1-.8-1.726z" class="cls-5" data-name="Caminho 48" transform="translate(-776.42 -300.263)"/>
                <path id="Caminho_49" d="M1137.755 845.674l19.888-68.933a6.245 6.245 0 0 1-1.557-.822 6.324 6.324 0 0 1-.515-.419l-60.215 45a6.247 6.247 0 0 1 .791 5.943z" class="cls-5" data-name="Caminho 49" transform="translate(-692.459 -393.916)"/>
                <path id="Caminho_50" d="M1323.8 1139.1a6.24 6.24 0 0 1 6.271-1.827l25.1-63.368z" class="cls-5" data-name="Caminho 50" transform="translate(-828.473 -571.589)"/>
                <path id="Caminho_51" d="M1267.438 1242.885l-35.732 74.266 38.264-68.171c-.016-.012-.034-.021-.05-.033a6.236 6.236 0 0 1-2.482-6.062z" class="cls-5" data-name="Caminho 51" transform="translate(-773.642 -672.2)"/>
                <path id="Caminho_52" d="M1348.165 1182.165a6.257 6.257 0 0 1 1 3.613l82.46 8.3a6.144 6.144 0 0 1 2.214-3.809l-32.287-45.378z" class="cls-5" data-name="Caminho 52" transform="translate(-842.983 -613.856)"/>
                <path id="Caminho_53" d="M847.007 903.5a6.205 6.205 0 0 1-2.311-3.291L696.1 933.511a6.219 6.219 0 0 1-3.249 6.478l71.067 158.384a6.25 6.25 0 0 1 4.353-.143l79.668-194.177a6.289 6.289 0 0 1-.932-.553z" class="cls-5" data-name="Caminho 53" transform="translate(-452.807 -468.167)"/>
                <path id="Caminho_54" d="M987.063 986.5a6.2 6.2 0 0 1 2.646-2.082L964.4 910.593a6.25 6.25 0 0 1-3.626-.1L881.1 1104.668a6.25 6.25 0 0 1 .929.553c.137.1.264.207.39.315l105.118-111.124a6.241 6.241 0 0 1-.474-7.912z" class="cls-5" data-name="Caminho 54" transform="translate(-564.892 -474.29)"/>
                <path id="Caminho_55" d="M991.237 1119.528c-.108-.079-.208-.166-.309-.25L885.8 1230.413a6.241 6.241 0 0 1 .4 7.84c-.034.046-.072.087-.106.132l63.815 51.558a6.223 6.223 0 0 1 9.714.677l54.5-32.728a6.224 6.224 0 0 1 4.188-9.108L995.6 1120.677a6.209 6.209 0 0 1-4.363-1.149z" class="cls-5" data-name="Caminho 55" transform="translate(-567.69 -598.604)"/>
                <path id="Caminho_56" d="M1258 1055.909a6.2 6.2 0 0 1-2.3-3.257l-91.893 21.157a6.232 6.232 0 0 1-4.673 7.061l22.732 128.13a6.217 6.217 0 0 1 3.023.523l73.723-153.224a6.174 6.174 0 0 1-.612-.39z" class="cls-5" data-name="Caminho 56" transform="translate(-730.435 -558.934)"/>
                <path id="Caminho_57" d="M1373.35 1061.346a6.252 6.252 0 0 1-5.2.63l-26.964 68.084a6.061 6.061 0 0 1 2.338 1.711l53.4-37.281z" class="cls-5" data-name="Caminho 57" transform="translate(-838.83 -564.111)"/>
                <path id="Caminho_58" d="M616.651-26.625a6.226 6.226 0 0 1 .8-1.494 6.206 6.206 0 0 1 2.533-2.035l-37.042-107.179a6.278 6.278 0 0 1-1.746.221l-7.761 96.561z" class="cls-5" data-name="Caminho 58" transform="translate(-381.705 149.589)"/>
                <path id="Caminho_59" d="M1579.909 463.813a6.237 6.237 0 0 1 9.5 7.165l85.41-22.766a6.224 6.224 0 0 1 .307-3.478l-178.688-83.484z" class="cls-5" data-name="Caminho 59" transform="translate(-931.265 -147.27)"/>
                <path id="Caminho_60" d="M1427.97 1034.44v.191l65.475 2.782a6.223 6.223 0 0 1 7.307-5.467l1.569-6.319z" class="cls-5" data-name="Caminho 60" transform="translate(-890.499 -542.843)"/>
                <path id="Caminho_61" d="M1526.807 1066.033l-45.042 31.443 32.281 45.368a6.257 6.257 0 0 1 3.905-.9l1.432-8.583 10.871-65.149a6.193 6.193 0 0 1-3.447-2.184z" class="cls-5" data-name="Caminho 61" transform="translate(-922.529 -566.901)"/>
                <path id="Caminho_62" d="M1652.641 641.947l-38.26 154.079 104.511-12.388a6.215 6.215 0 0 1 3.155-5.757l-65.954-136.295a6.258 6.258 0 0 1-3.452.361z" class="cls-5" data-name="Caminho 62" transform="translate(-1001.489 -314.184)"/>
                <path id="Caminho_63" d="M1609.808 1013.945a6.2 6.2 0 0 1 4.083 4.166l101-23.039-103.445 12.261z" class="cls-5" data-name="Caminho 63" transform="translate(-998.766 -524.65)"/>
                <path id="Caminho_64" d="M167 227.127a6.2 6.2 0 0 1-4.2 4.385l29.8 125.447a6.262 6.262 0 0 1 2.188.02L225 238.294z" class="cls-5" data-name="Caminho 64" transform="translate(-137.209 -67.412)"/>
                <path id="Caminho_65" d="M171.791 120.3l58.045 11.175L250.427 50.6a6.059 6.059 0 0 1-2.518-1.563l-77.33 66.719a6.255 6.255 0 0 1 1.212 4.544z" class="cls-5" data-name="Caminho 65" transform="translate(-141.841 38.624)"/>
                <path id="Caminho_66" d="M366.461 272.9l-92.434-17.8L243.8 373.834a6.2 6.2 0 0 1 2.653 1.7l121.114-98.242a6.253 6.253 0 0 1-1.106-4.392z" class="cls-5" data-name="Caminho 66" transform="translate(-185.436 -84.071)"/>
                <path id="Caminho_67" d="M411.4 150.8a6.208 6.208 0 0 1 .988-2.1 6.334 6.334 0 0 1 .4-.5l-68.782-96.84a6.255 6.255 0 0 1-4.419.819l-20.58 80.83z" class="cls-5" data-name="Caminho 67" transform="translate(-230.216 37.241)"/>
                <path id="Caminho_68" d="M139.281 88.493l77.33-66.718a6.25 6.25 0 0 1-1.236-4.249L123.457 4.272a6.214 6.214 0 0 1-4.548 4.941l15.13 77.467a6.214 6.214 0 0 1 4.467 1.137 6.3 6.3 0 0 1 .775.676z" class="cls-5" data-name="Caminho 68" transform="translate(-111.077 65.277)"/>
                <path id="Caminho_69" d="M451.134 143.192a6.2 6.2 0 0 1 1.748-1.056l5.964-74.206-74.563-24.03a6.054 6.054 0 0 1-1.865 2.545l42.32 59.583z" class="cls-5" data-name="Caminho 69" transform="translate(-267.972 41.681)"/>
                <path id="Caminho_70" d="M386.068-67.187l74.377 23.969 7.745-96.368a6.207 6.207 0 0 1-2.769-1.126 6.2 6.2 0 0 1-.769-.671l-79.659 68.9a6.252 6.252 0 0 1 1.075 5.296z" class="cls-5" data-name="Caminho 70" transform="translate(-269.505 152.001)"/>
                <path id="Caminho_71" d="M576.388 431.357c-.006-.016-.009-.033-.015-.049L489.13 455.9l-4.016 11.237a6.164 6.164 0 0 1 3.062 2.863z" class="cls-5" data-name="Caminho 71" transform="translate(-329.117 -188.983)"/>
                <path id="Caminho_72" d="M374.827 312.98a6.148 6.148 0 0 1-2.1-1.489l-121.118 98.242a6.213 6.213 0 0 1 .794 1.528l97.076-27.361z" class="cls-5" data-name="Caminho 72" transform="translate(-190.087 -117.643)"/>
                <path id="Caminho_73" d="M582.323 435.436a6.2 6.2 0 0 1-1.866-2.18l-88.212 38.638a6.234 6.234 0 0 1-.821 5.8c-.009.013-.021.024-.03.037L647.374 609.5a6.2 6.2 0 0 1 2.576-1.845l-61.809-171.406a6.234 6.234 0 0 1-5.818-.813z" class="cls-5" data-name="Caminho 73" transform="translate(-332.856 -190.142)"/>
                <path id="Caminho_74" d="M829.666 555.234a6.2 6.2 0 0 1-.743-9.449L748.8 454.764l-15.135-17.193a6.185 6.185 0 0 1-1.319.914l61.844 171.506a6.223 6.223 0 0 1 4.609.691l31.137-55.274c-.093-.059-.184-.108-.27-.174z" class="cls-5" data-name="Caminho 74" transform="translate(-476.318 -192.712)"/>
                <path id="Caminho_75" d="M934.761 729.835a6.24 6.24 0 0 1-5.35-.029l-31.171 55.336a6.2 6.2 0 0 1 2.115 3.053l56.659-17.932z" class="cls-5" data-name="Caminho 75" transform="translate(-575.095 -366.71)"/>
                <path id="Caminho_76" d="M972.451 852.739l-11.642-21.152-56.863 18a6.261 6.261 0 0 1 .078 1.482l66.148 5.742a6.185 6.185 0 0 1 2.279-4.069z" class="cls-5" data-name="Caminho 76" transform="translate(-578.492 -427.311)"/>
                <path id="Caminho_77" d="M254.1 519.968l.03.145 84.73-10.312a6.234 6.234 0 0 1 7.943-6.346l3.823-10.7z" class="cls-5" data-name="Caminho 77" transform="translate(-191.571 -225.57)"/>
                <circle id="Elipse_5" cx="6.241" cy="6.241" r="6.241" class="cls-6" data-name="Elipse 5" transform="rotate(-16.39 2426.843 -328.912)"/>
                <path id="Caminho_78" d="M1193.583 1765.726a6.241 6.241 0 1 0 1.375 8.718 6.241 6.241 0 0 0-1.375-8.718z" class="cls-6" data-name="Caminho 78" transform="translate(-745.041 -982.791)"/>
                <path id="Caminho_79" d="M852.887 127.058a6.2 6.2 0 0 0-9.137 2.046L663.759 45.011l.066-.3-.483.108-1.474-.689.7.862L548.01 70.618a6.232 6.232 0 0 0-9.689-3.269L478.643-3.415a6.232 6.232 0 0 0 .726-.825 6.241 6.241 0 0 0-1.376-8.718 6.241 6.241 0 0 0-8.718 1.376 6.231 6.231 0 0 0-.883 1.729L346.445-41.207a6.238 6.238 0 0 0-2.434-6.325 6.224 6.224 0 0 0-5.425-.936l-37.034-107.169a6.2 6.2 0 0 0 2.632-2.077 6.241 6.241 0 0 0-1.376-8.718 6.241 6.241 0 0 0-8.718 1.376 6.242 6.242 0 0 0 .072 7.439l-79.659 68.9a6.237 6.237 0 0 0-.769-.671 6.241 6.241 0 0 0-8.718 1.376 6.209 6.209 0 0 0-1.056 2.382l-91.935-13.251a6.233 6.233 0 0 0-2.561-5.335 6.241 6.241 0 0 0-8.718 1.376 6.241 6.241 0 0 0 1.376 8.718 6.214 6.214 0 0 0 4.467 1.137l15.13 77.467a6.215 6.215 0 0 0-3.456 2.362 6.241 6.241 0 0 0 1.376 8.718 6.218 6.218 0 0 0 4.716 1.1l29.8 125.447a6.238 6.238 0 1 0 8.062 5.609l84.73-10.312a6.229 6.229 0 0 0 10.619 3.17l155.99 131.78.263-.311a6.241 6.241 0 1 0 11.164 4.882l66.21 5.748a6.25 6.25 0 0 0 .069.945l-148.598 33.309a6.238 6.238 0 1 0-3.8 7.6l71.074 158.4a6.236 6.236 0 1 0 7.491 9.831l63.843 51.58a6.239 6.239 0 1 0 10.639.74l54.516-32.737a6.241 6.241 0 1 0 8.7-8.738c-.027-.019-.055-.034-.082-.053l41.524-73.978a6.225 6.225 0 0 0 9.081-4.475l82.46 8.3a6.24 6.24 0 1 0 7.662-5.856l12.3-73.731a6.234 6.234 0 0 0 6.786-7.195l102.348-23.346a6.239 6.239 0 1 0 3.63-7.555l-65.951-136.29a6.086 6.086 0 0 0 2.374-2.391l86.048-22.935a6.239 6.239 0 1 0 9.58-7.041zM663.514 46.149l84.052 103.278a6.142 6.142 0 0 0-1.412 1.939l-97.189-37.817zm-26.591 277.018a6.211 6.211 0 0 0-2.2-3.7L748.3 159.424l.3-.078a6.216 6.216 0 0 0 1.323.6l-38.339 154.372zm.069 1.8l65.475 2.782a6.254 6.254 0 0 0 .894 3.094l-45.043 31.447-23.589-33.153a6.156 6.156 0 0 0 2.264-4.167zm-2.93-5.976a6.192 6.192 0 0 0-2.3-.853L643.753 186.7l102.174-30.624a6.2 6.2 0 0 0 1.852 2.679zm-9.429 6.311l-91.893 21.157a6.2 6.2 0 0 0-3.858-4.079l16.48-57.121 79.611 36.8a6.227 6.227 0 0 0-.34 3.241zm120.986-172.091l-92.563-4.7a6.23 6.23 0 0 0-10.726-4.234l6.461-29.932 97.07 37.771a6.206 6.206 0 0 0-.242 1.095zm.093 2.087l-101.88 30.536 2.828-30.993a6.23 6.23 0 0 0 6.359-5.517L745.21 154l.365.019a6.271 6.271 0 0 0 .137 1.281zm-102.561-1.647a6.209 6.209 0 0 0 2.7 1.114L643 186.084l-70.3 21.07a6.235 6.235 0 0 0-.626-1.233l70.042-53.23a6.251 6.251 0 0 0 1.036.96zm-71.591 51.593a6.2 6.2 0 0 0-5.767-2.062l-6.293-35.234 81.325-17.631a6.213 6.213 0 0 0 .8 1.726zm-6.555-1.87a6.213 6.213 0 0 0-4.218 4.474l-98.019-17.315a6.252 6.252 0 0 0-.03-1.608l95.972-20.805zm-62.557 55.583l60.215-45a6.155 6.155 0 0 0 2.072 1.241l-19.888 68.933L503.24 264.9a6.247 6.247 0 0 0-.792-5.942zm58.174-49.986a6.271 6.271 0 0 0 .169 1.851l-78.535 24.855-22.332-40.572a6.2 6.2 0 0 0 2.7-3.757zm.415 2.622a6.2 6.2 0 0 0 1.061 1.776l-60.176 44.971a6.205 6.205 0 0 0-7.749-1.012L482.654 236.4zm-58.569 54.735a6.176 6.176 0 0 0 .431-.693l41.719 19.283-16.514 57.239a6.254 6.254 0 0 0-2.973.074l-25.31-73.821a6.2 6.2 0 0 0 2.648-2.081zm43.121 18.146l19.922-69.051a6.264 6.264 0 0 0 4.01-.454l57.891 104.09a6.022 6.022 0 0 0-2.1 2.264zm24.638-69.9a6.209 6.209 0 0 0 2.7-6.64l69.992-20.978-11.965 131.109a6.271 6.271 0 0 0-2.836.6zM548.192 71.407l114.575-25.634-14.567 67.479-100.227-39a6.239 6.239 0 0 0 .219-2.845zm-.51 3.6l100.346 39.046-6.516 30.188L547.295 75.7a6.251 6.251 0 0 0 .387-.694zm-.863 1.351l94.736 68.914a6.214 6.214 0 0 0-.9 4.256l-81.295 17.623-15.841-88.722a6.208 6.208 0 0 0 3.3-2.071zm-8.124 1.282a6.207 6.207 0 0 0 4.027.927l15.847 88.756-96 20.813a6.2 6.2 0 0 0-2.009-3.079zM459.9 184.581a6.2 6.2 0 0 0-2.373-.895l9.963-110.979 68.308.064a6.224 6.224 0 0 0 2.241 4.393zm-3.178-.968a6.248 6.248 0 0 0-3.963 1.3L357.453 76.642c.1-.114.193-.228.283-.35a6.2 6.2 0 0 0 1.187-3.687l107.756.1zm21.306-186.5l59.677 70.765a6.132 6.132 0 0 0-1.9 4.086l-68.241-.064 6.605-73.572a6.251 6.251 0 0 0 3.86-1.217zm-8.679-1.253a6.229 6.229 0 0 0 1.3 1.278 6.21 6.21 0 0 0 2.712 1.116L466.752 71.9l-107.882-.1a6.252 6.252 0 0 0-.855-2.428l34.047-22.48zm-.443-.677L462.72-.735 357.544 68.709a6.176 6.176 0 0 0-4.785-2.324L346.67 11.6 468.23-6.59a6.236 6.236 0 0 0 .676 1.771zM346.592 73.919L259.9 98.357l25.154-70.377a6.239 6.239 0 0 0 6.331-1.8l56.4 42.586c-.048.061-.1.118-.146.181a6.218 6.218 0 0 0-1.047 4.972zM335.92-38.089L307.954-6.547l-19.888 22.431a6.257 6.257 0 0 0-2.772.04l5.922-73.683 43.043 13.871a6.244 6.244 0 0 0 1.661 5.799zm-44.034 63.635a6.228 6.228 0 0 0 .682-5.849l53.3-7.977 6.081 54.71a6.221 6.221 0 0 0-3.621 1.732zm53.5-64.359a6.233 6.233 0 0 0 .844-1.613L468.2-9.069a6.239 6.239 0 0 0-.087 1.678L346.581 10.8l-5.237-47.122a6.219 6.219 0 0 0 4.043-2.491zm-4.85 2.561l5.243 47.168-53.575 8.017a6.158 6.158 0 0 0-3.279-2.8l25.063-28.269 22.537-25.419c.049.038.093.079.143.116a6.206 6.206 0 0 0 3.869 1.186zM300.789-155.37l37.037 107.179a6.2 6.2 0 0 0-2.533 2.035 6.224 6.224 0 0 0-.8 1.494l-43.211-13.926 7.761-96.561a6.278 6.278 0 0 0 1.746-.221zm-6.091-1.639a6.205 6.205 0 0 0 .769.671 6.207 6.207 0 0 0 2.769 1.126l-7.745 96.368-74.377-23.968a6.252 6.252 0 0 0-1.075-5.292zm-79.586 76.344a6.238 6.238 0 0 0 .751-1.378l74.562 24.029-5.964 74.206a6.2 6.2 0 0 0-1.748 1.056l-26.4-37.162L214-79.5a6.227 6.227 0 0 0 1.112-1.165zm-1.771 1.639l68.783 96.841a6.328 6.328 0 0 0-.4.5 6.208 6.208 0 0 0-.988 2.1L188.342 2.623l20.58-80.83a6.255 6.255 0 0 0 4.418-.819zm-6.947-.264a6.226 6.226 0 0 0 1.743.887L187.545 2.47 129.5-8.705a6.255 6.255 0 0 0-1.212-4.542l77.33-66.719a6.271 6.271 0 0 0 .775.677zm-83.88 63.62l-15.13-77.467a6.213 6.213 0 0 0 3.456-2.362 6.207 6.207 0 0 0 1.092-2.578l91.918 13.254a6.25 6.25 0 0 0 1.236 4.249l-77.33 66.718a6.3 6.3 0 0 0-.775-.676 6.214 6.214 0 0 0-4.468-1.137zm32.426 137.59L125.14-3.526a6.2 6.2 0 0 0 3.216-2.288 6.224 6.224 0 0 0 .988-2.1l58 11.167-30.217 118.688a6.261 6.261 0 0 0-2.188-.02zm5.626 1.913a6.2 6.2 0 0 0-2.652-1.7L188.141 3.409l92.434 17.8a6.253 6.253 0 0 0 1.1 4.386zm.508.63l121.112-98.241a6.147 6.147 0 0 0 2.1 1.489l-25.343 70.916-97.076 27.365a6.213 6.213 0 0 0-.794-1.528zm86.952-11.881a6.214 6.214 0 0 0-1.183 4.022l-84.73 10.312c-.009-.049-.02-.1-.03-.145l96.527-27.21-3.823 10.7a6.237 6.237 0 0 0-6.762 2.322zm8.718-1.376a6.244 6.244 0 0 0-1.2-.678l4.016-11.237L346.806 74.7c.006.016.009.033.015.049l-88.212 38.638a6.2 6.2 0 0 0-1.866-2.18zm157.324 140.529L258.089 119.963c.009-.013.021-.024.03-.037a6.234 6.234 0 0 0 .82-5.8l88.213-38.638a6.225 6.225 0 0 0 7.684 2.993l61.808 171.409a6.2 6.2 0 0 0-2.576 1.845zm3.35-2.081L355.575 78.148a6.184 6.184 0 0 0 1.319-.914l15.136 17.193 80.125 91.02a6.2 6.2 0 0 0 .743 9.449c.087.063.177.116.266.174l-31.137 55.274a6.224 6.224 0 0 0-4.609-.691zm7.393 4.206a6.2 6.2 0 0 0-2.115-3.053l31.172-55.336a6.24 6.24 0 0 0 5.35.029l22.252 40.428zm66.42 8.012l-66.148-5.742a6.258 6.258 0 0 0-.078-1.482l56.863-18L493.51 257.8a6.186 6.186 0 0 0-2.279 4.069zM410.665 462.58L339.6 304.2a6.219 6.219 0 0 0 3.249-6.478l148.593-33.3a6.205 6.205 0 0 0 2.311 3.291 6.285 6.285 0 0 0 .935.556l-79.67 194.169a6.249 6.249 0 0 0-4.353.142zm6.418 1.04a6.024 6.024 0 0 0-.39-.315 6.254 6.254 0 0 0-.929-.553l79.669-194.179a6.249 6.249 0 0 0 3.626.1l25.31 73.821a6.229 6.229 0 0 0-2.172 10zm129.327 21.364a6.235 6.235 0 0 0-.416 6.677l-54.5 32.728a6.223 6.223 0 0 0-9.714-.677l-63.815-51.557c.035-.045.073-.086.106-.132a6.241 6.241 0 0 0-.4-7.84l105.117-111.135c.1.085.2.171.31.25a6.209 6.209 0 0 0 4.359 1.149l22.725 128.106a6.208 6.208 0 0 0-3.773 2.431zm7.6-2.025a6.216 6.216 0 0 0-3.024-.523L528.254 354.31a6.232 6.232 0 0 0 4.673-7.061l91.893-21.157a6.149 6.149 0 0 0 2.909 3.644zm3.609-5.634l35.732-74.266a6.237 6.237 0 0 0 2.481 6.062c.017.012.034.021.05.033zm37.259-77.439l31.368-65.195-25.1 63.368a6.24 6.24 0 0 0-6.272 1.827zm9.376.148a6.06 6.06 0 0 0-2.338-1.711l26.964-68.084a6.252 6.252 0 0 0 5.2-.63l23.583 33.144zm85.051 9.919a6.2 6.2 0 0 0-1.1 2.645l-82.46-8.3a6.256 6.256 0 0 0-1-3.613l53.39-37.271 32.287 45.378a6.221 6.221 0 0 0-1.122 1.162zm7.1-11.115l-1.432 8.583a6.258 6.258 0 0 0-3.905.9l-32.281-45.368 45.042-31.443a6.193 6.193 0 0 0 3.446 2.184zm7.248-74.9a6.206 6.206 0 0 0-1.154 3l-65.475-2.782v-.191l74.354-8.813-1.569 6.319a6.236 6.236 0 0 0-6.156 2.47zm11.023 1.894a6.2 6.2 0 0 0-4.083-4.166l1.642-6.613 103.445-12.258zM820.11 296.07a6.215 6.215 0 0 0-3.155 5.757l-104.512 12.389L750.7 160.137a6.258 6.258 0 0 0 3.453-.359zm22.99-162.753l-85.41 22.766a6.237 6.237 0 0 0-9.5-7.165L664.724 46.354l178.684 83.484a6.223 6.223 0 0 0-.308 3.479z" class="cls-6" data-name="Caminho 79" transform="translate(-99.551 167.626)"/>
                <path id="Caminho_80" d="M907.944 2021.291a6.241 6.241 0 1 0 1.376 8.718 6.241 6.241 0 0 0-1.376-8.718z" class="cls-6" data-name="Caminho 80" transform="translate(-574.971 -1134.956)"/>
            </g>
            <g id="Agrupar_34" data-name="Agrupar 34" transform="translate(-109.943 -351.331)">
                <path id="Caminho_81" d="M769.331 210.507a4.357 4.357 0 0 1 1.533-.3l5.393-69.748a4.413 4.413 0 0 1-1-.366l-30.765 48.897 23.552 22.31a4.363 4.363 0 0 1 1.287-.793z" class="cls-5" data-name="Caminho 81" transform="translate(-398.792 58.733)"/>
                <path id="Caminho_82" d="M725.243 186.516l30.678-48.758a4.341 4.341 0 0 1-.852-.865l-41.236 32.934a4.336 4.336 0 0 1-.663 5.254z" class="cls-5" data-name="Caminho 82" transform="translate(-380.143 60.64)"/>
                <path id="Caminho_83" d="M699.863 166.085l41.28-32.969c-.049-.1-.1-.2-.141-.312a4.363 4.363 0 0 1-.268-1.083l-50.242 1.3 5.672 31.553a4.387 4.387 0 0 1 3.699 1.511z" class="cls-5" data-name="Caminho 83" transform="translate(-366.64 63.72)"/>
                <path id="Caminho_84" d="M724.464 41.082a4.395 4.395 0 0 1 .937-2.428l-60.5-57.8a4.366 4.366 0 0 1-1.272.775 4.437 4.437 0 0 1-.43.144l10.9 60.614z" class="cls-5" data-name="Caminho 84" transform="translate(-350.391 153.549)"/>
                <path id="Caminho_85" d="M904.119 189.592l-57.412-26.453L815.6 224.6a4.354 4.354 0 0 1 1.584 1.737l86.859-34.072a4.361 4.361 0 0 1 .076-2.673z" class="cls-5" data-name="Caminho 85" transform="translate(-441.129 45.013)"/>
                <path id="Caminho_86" d="M1012.457 413.574l-42.335 38.052a4.344 4.344 0 0 1 .691 3.448l36.056 13.81 33.862-79.288a4.38 4.38 0 0 1-.887-.637z" class="cls-5" data-name="Caminho 86" transform="translate(-533.133 -89.441)"/>
                <path id="Caminho_87" d="M831.872 57.027a4.359 4.359 0 0 1 .551.48l31.24-24.541 17.357-13.635a4.357 4.357 0 0 1-.686-2.691l-21.721-3.6z" class="cls-5" data-name="Caminho 87" transform="translate(-450.819 134.38)"/>
                <path id="Caminho_88" d="M820.907 136.4a4.352 4.352 0 0 1-3.6 1.968l-5.6 69.706a4.394 4.394 0 0 1 .855.241l31.1-61.434z" class="cls-5" data-name="Caminho 88" transform="translate(-438.808 60.932)"/>
                <path id="Caminho_89" d="M920.487-78.971a4.373 4.373 0 0 1 2.635-2.969 4.363 4.363 0 0 1 2.09-.274l5.048-24.351 8.167-39.4a4.451 4.451 0 0 1-.62-.234l-38.72 63.685z" class="cls-5" data-name="Caminho 89" transform="translate(-490.839 229.193)"/>
                <path id="Caminho_90" d="M883.948 30.85a4.363 4.363 0 0 1-.85-.692l-48.58 38.195a4.38 4.38 0 0 1 .357 4.076L857.6 82.9z" class="cls-5" data-name="Caminho 90" transform="translate(-452.394 124.19)"/>
                <path id="Caminho_91" d="M668.79-22.964l60.5 57.8a4.354 4.354 0 0 1 4.792-.631L760.654-9.5l-91.06-15.077a4.4 4.4 0 0 1-.804 1.613z" class="cls-5" data-name="Caminho 91" transform="translate(-353.719 156.778)"/>
                <path id="Caminho_92" d="M919.724 32.772L893.391 84.8l57.385 26.44a4.36 4.36 0 0 1 1.822-1.721l-30.05-76.606a4.359 4.359 0 0 1-2.824-.141z" class="cls-5" data-name="Caminho 92" transform="translate(-487.448 122.634)"/>
                <path id="Caminho_93" d="M818.16 326.974a4.386 4.386 0 0 1-1.457 2.272l23.14 34.271 33.565 49.71c.06-.026.116-.056.177-.08a4.359 4.359 0 0 1 2.6-.185l18.994-73.12z" class="cls-5" data-name="Caminho 93" transform="translate(-441.787 -52.535)"/>
                <path id="Caminho_94" d="M1158.622 624.612l66.279 44.167a4.35 4.35 0 0 1 1.081-.958l-19.953-39.59-46.93-4.912a4.406 4.406 0 0 1-.477 1.293z" class="cls-5" data-name="Caminho 94" transform="translate(-645.367 -228.981)"/>
                <path id="Caminho_95" d="M989.939 602.727l14.805-34.668-35.986-13.783a4.374 4.374 0 0 1-1.671 1.98l18.969 45.934a4.375 4.375 0 0 1 3.883.537z" class="cls-5" data-name="Caminho 95" transform="translate(-531.326 -187.872)"/>
                <path id="Caminho_96" d="M966.67-73.578l21.156.9-8.452-72.533a4.4 4.4 0 0 1-.542-.02l-9.536 46-3.681 17.755a4.373 4.373 0 0 1 2.8 2.588 4.382 4.382 0 0 1-1.745 5.31z" class="cls-5" data-name="Caminho 96" transform="translate(-530.451 228.619)"/>
                <path id="Caminho_97" d="M1267.917 752.126l-39.423 62.229 57.447 42.444a4.362 4.362 0 0 1 1.667-1.164 4.548 4.548 0 0 1 .458-.15L1270.254 752.6a4.378 4.378 0 0 1-2.337-.474z" class="cls-5" data-name="Caminho 97" transform="translate(-686.97 -305.673)"/>
                <path id="Caminho_98" d="M984.645 359.109l-19.025 73.242a4.39 4.39 0 0 1 1.3.883l69.7-62.65a4.312 4.312 0 0 1-.854-2.933z" class="cls-5" data-name="Caminho 98" transform="translate(-530.453 -71.669)"/>
                <path id="Caminho_99" d="M907.1 236.991l-86.858 34.073a4.344 4.344 0 0 1 .158 1.536l77.089 12.88 12.037-46.339a4.37 4.37 0 0 1-2.426-2.15z" class="cls-5" data-name="Caminho 99" transform="translate(-443.895 1.041)"/>
                <path id="Caminho_100" d="M1194.016 812.263l39.392-62.18a4.363 4.363 0 0 1-.689-.661l-60.961 41.937a4.464 4.464 0 0 1 .259.537 4.373 4.373 0 0 1-.333 3.866z" class="cls-5" data-name="Caminho 100" transform="translate(-653.144 -304.064)"/>
                <path id="Caminho_101" d="M582.1 43.493a4.368 4.368 0 0 1 .268 1.084l41.607-1.077L613.1-16.99a4.374 4.374 0 0 1-2.034-.313l-30.674 58.719a4.359 4.359 0 0 1 1.708 2.077z" class="cls-5" data-name="Caminho 101" transform="translate(-301.086 152.449)"/>
                <path id="Caminho_102" d="M670.892-100.673l91.381 15.13 38.88-63.948a4.354 4.354 0 0 1-1.344-1.553l-129.06 48.89a4.344 4.344 0 0 1 .143 1.481z" class="cls-5" data-name="Caminho 102" transform="translate(-354.885 232.079)"/>
                <path id="Caminho_103" d="M734.247 284.865l-23.434-22.194-22.148 35.2a4.354 4.354 0 0 1 1.547 1.8l43.156-11.385a4.384 4.384 0 0 1 .879-3.421z" class="cls-5" data-name="Caminho 103" transform="translate(-365.552 -14.249)"/>
                <path id="Caminho_104" d="M798 414.766a4.349 4.349 0 0 1 .675-.575l-4.91-7.272L742 330.265a4.478 4.478 0 0 1-.5.24 4.384 4.384 0 0 1-5.681-2.48c-.013-.032-.021-.065-.033-.1L692.693 339.3a4.366 4.366 0 0 1-.322 3.029z" class="cls-5" data-name="Caminho 104" transform="translate(-367.759 -53.103)"/>
                <path id="Caminho_105" d="M631.565 166.794a4.418 4.418 0 0 1 .43-.144l-5.695-31.673-41.735 1.077a4.392 4.392 0 0 1-.51 1.781l45.7 30.292a4.355 4.355 0 0 1 1.81-1.333z" class="cls-5" data-name="Caminho 105" transform="translate(-303.267 61.781)"/>
                <path id="Caminho_106" d="M1150.311 391.569l-.3 88.451a4.372 4.372 0 0 1 4.048 4.418l46.411 4.858-49.332-97.88a4.366 4.366 0 0 1-.827.153z" class="cls-5" data-name="Caminho 106" transform="translate(-640.239 -90.905)"/>
                <path id="Caminho_107" d="M824.77-261.687a4.395 4.395 0 0 1 .774-2.066L744.6-332.736a4.365 4.365 0 0 1-1.459.941 4.36 4.36 0 0 1-2.813.127l-26.88 68.68z" class="cls-5" data-name="Caminho 107" transform="translate(-380.307 340.259)"/>
                <path id="Caminho_108" d="M1561.663 1425.072a4.329 4.329 0 0 1-3.229 2.083l1.648 63.01c.094 0 .189-.008.283-.006l12.787-59.523z" class="cls-5" data-name="Caminho 108" transform="translate(-883.418 -706.349)"/>
                <path id="Caminho_109" d="M1297.874 674.831a4.381 4.381 0 0 1 5.4 1.9l65.857-30.036a4.365 4.365 0 0 1-.247-1.492l-90.73-9.5z" class="cls-5" data-name="Caminho 109" transform="translate(-716.539 -236.357)"/>
                <path id="Caminho_110" d="M1507.474 1131.877a4.359 4.359 0 0 1-1.985 1.561c-.132.052-.266.1-.4.134l3.494 18.655 16.824 89.828-5.689-103.169z" class="cls-5" data-name="Caminho 110" transform="translate(-851.656 -531.779)"/>
                <path id="Caminho_111" d="M1562.225 1295.726a4.367 4.367 0 0 1 2.047 5.405l11.311 5.479 19.007-88.475z" class="cls-5" data-name="Caminho 111" transform="translate(-885.675 -583.138)"/>
                <path id="Caminho_112" d="M1446.623 1247.35a4.36 4.36 0 0 1 1.823-1.35c.132-.052.266-.1.4-.134l-8.439-45.062-12.22-65.241a4.38 4.38 0 0 1-2.63-.59l-48.29 66.867z" class="cls-5" data-name="Caminho 112" transform="translate(-775.55 -533.622)"/>
                <path id="Caminho_113" d="M1061.868 860.021a4.376 4.376 0 0 1-.284-1.221l-58.506-.337-2.685 41.328a4.39 4.39 0 0 1 2.674 1.515l59.063-40.742a4.51 4.51 0 0 1-.262-.543z" class="cls-5" data-name="Caminho 113" transform="translate(-551.157 -368.986)"/>
                <path id="Caminho_114" d="M1276.4 1453.2a4.363 4.363 0 0 1-.948.825l27 41.75 17.469 27.011a4.379 4.379 0 0 1 4.893.1l24.814-32.26z" class="cls-5" data-name="Caminho 114" transform="translate(-714.929 -723.096)"/>
                <path id="Caminho_115" d="M1543.316 1150.387l5.762 104.492a4.385 4.385 0 0 1 1.142.2l32.378-77.622a4.371 4.371 0 0 1-1.933-5.686z" class="cls-5" data-name="Caminho 115" transform="translate(-874.416 -542.8)"/>
                <path id="Caminho_116" d="M675.609-154.882a4.362 4.362 0 0 1-2.126.271l-9.573 44.348 18.862-48.193-4.406-.051a4.38 4.38 0 0 1-2.757 3.625z" class="cls-5" data-name="Caminho 116" transform="translate(-350.813 236.523)"/>
                <path id="Caminho_117" d="M882.06 691.559a4.388 4.388 0 0 1-2.586-1.415l-88.247 64.913a4.257 4.257 0 0 1 .613 1.879l85.941.5z" class="cls-5" data-name="Caminho 117" transform="translate(-426.618 -268.769)"/>
                <path id="Caminho_118" d="M1040.083 589.057l-14.914 34.922a4.332 4.332 0 0 1 1.211 2.51l40.911-20.8 3.976-2.021v-.008a4.36 4.36 0 0 1-.152-2.722z" class="cls-5" data-name="Caminho 118" transform="translate(-565.909 -208.581)"/>
                <path id="Caminho_119" d="M1155.145 712.459l3.1 54.651a4.39 4.39 0 0 1 3.208 1.574l60.961-41.937a4.409 4.409 0 0 1-.259-.537 4.359 4.359 0 0 1-.284-1.961z" class="cls-5" data-name="Caminho 119" transform="translate(-643.297 -282.055)"/>
                <path id="Caminho_120" d="M1024.7 689.631a4.368 4.368 0 0 1-.847.822l53.571 63.843a4.262 4.262 0 0 1 1.842-.731l-3.111-54.843z" class="cls-5" data-name="Caminho 120" transform="translate(-565.125 -268.463)"/>
                <path id="Caminho_121" d="M421.693 134.373a4.373 4.373 0 0 1-.294-1.344l-90.616-3.073-6.083 54.514a4.383 4.383 0 0 1 2.882 1.807l94.178-51.759c-.023-.049-.048-.095-.067-.145z" class="cls-5" data-name="Caminho 121" transform="translate(-148.845 64.77)"/>
                <path id="Caminho_122" d="M1093.806 482.449a4.341 4.341 0 0 1 3.478-2.472l.3-88.468a4.39 4.39 0 0 1-.922-.188l-33.849 79.259z" class="cls-5" data-name="Caminho 122" transform="translate(-588.324 -90.848)"/>
                <path id="Caminho_123" d="M1151.614 629.427a4.373 4.373 0 0 1-1.036.262l1.8 31.749 66.915 11.823a4.408 4.408 0 0 1 .368-.926l-66.289-44.173a4.36 4.36 0 0 1-1.758 1.265z" class="cls-5" data-name="Caminho 123" transform="translate(-640.577 -231.864)"/>
                <path id="Caminho_124" d="M1541.383 1096.558a4.412 4.412 0 0 1-.956.252l1.116 20.238 37.8 21.641a4.39 4.39 0 0 1 .392-.477l-37.366-42.2a4.4 4.4 0 0 1-.986.546z" class="cls-5" data-name="Caminho 124" transform="translate(-872.696 -510.424)"/>
                <path id="Caminho_125" d="M1367.987 1026.791a4.352 4.352 0 0 1-2.45.216l-7.42 25.081 54.11 12.763a4.4 4.4 0 0 1 .6-1.164l-43.414-37.807a4.371 4.371 0 0 1-1.426.911z" class="cls-5" data-name="Caminho 125" transform="translate(-764.148 -468.668)"/>
                <path id="Caminho_126" d="M1511.068 1106.252a4.366 4.366 0 0 1-.094 3.417l11.791 6.75-1.087-19.713a4.4 4.4 0 0 1-2.559-.948l-8.825 9.223a4.369 4.369 0 0 1 .774 1.271z" class="cls-5" data-name="Caminho 126" transform="translate(-854.755 -510.274)"/>
                <path id="Caminho_127" d="M291.656 128.435l-29.126-.988a4.384 4.384 0 0 1-2.184 3.254l23.735 52.517a4.359 4.359 0 0 1 1.494-.3z" class="cls-5" data-name="Caminho 127" transform="translate(-110.529 66.264)"/>
                <path id="Caminho_128" d="M1237.98 950.033l-57.4-42.409-31.831 50.244a4.33 4.33 0 0 1 1.481 2.782l87.118-8.338a4.393 4.393 0 0 1 .632-2.279z" class="cls-5" data-name="Caminho 128" transform="translate(-639.488 -398.258)"/>
                <path id="Caminho_129" d="M695.782 232.576a4.319 4.319 0 0 1-2.95.768l-7.821 45.981a4.4 4.4 0 0 1 .763.246l22.263-35.385z" class="cls-5" data-name="Caminho 129" transform="translate(-363.378 3.67)"/>
                <path id="Caminho_130" d="M1072.784 626.961l-3.993 2.03-41.238 20.963a4.39 4.39 0 0 1-.453 1.624l50.94 9-1.79-31.578a4.385 4.385 0 0 1-3.466-2.039z" class="cls-5" data-name="Caminho 130" transform="translate(-567.059 -231.149)"/>
                <path id="Caminho_131" d="M1025.167 242.028l-12.019 46.27 51.053 8.53a4.386 4.386 0 0 1 1.386-2.211l-37.53-53.117a4.267 4.267 0 0 1-2.89.528z" class="cls-5" data-name="Caminho 131" transform="translate(-558.751 -1.644)"/>
                <path id="Caminho_132" d="M1296.568 500.743a4.4 4.4 0 0 1 .56-1.426l-140.576-104.884 48.767 96.76z" class="cls-5" data-name="Caminho 132" transform="translate(-644.135 -92.701)"/>
                <path id="Caminho_133" d="M1031.5 111.085a4.375 4.375 0 0 1 1.738.316l37.644-73.167-48.11-2.045z" class="cls-5" data-name="Caminho 133" transform="translate(-564.48 120.6)"/>
                <path id="Caminho_134" d="M1402.528 664.69l-65.858 30.036a4.38 4.38 0 0 1-2.533 5.521 4.507 4.507 0 0 1-.458.15l17.811 102.889a4.366 4.366 0 0 1 1.5.145l51.426-136.979a4.361 4.361 0 0 1-1.888-1.762z" class="cls-5" data-name="Caminho 134" transform="translate(-749.597 -253.613)"/>
                <path id="Caminho_135" d="M696.438-258.713a4.362 4.362 0 0 1 .288 1.247l4.71.055 25.808-65.942-32.516 62.558a4.358 4.358 0 0 1 1.71 2.082z" class="cls-5" data-name="Caminho 135" transform="translate(-369.162 334.672)"/>
                <path id="Caminho_136" d="M1003.11-243.432a4.38 4.38 0 0 1-1.176 4.878l54.606 74.487-24.977-135.718a4.372 4.372 0 0 1-2.19-.369L998.8-246.207a4.382 4.382 0 0 1 4.31 2.775z" class="cls-5" data-name="Caminho 136" transform="translate(-550.209 320.86)"/>
                <path id="Caminho_137" d="M1501.166 1492.576a4.377 4.377 0 0 1 .6-.182l-1.65-63.1a4.387 4.387 0 0 1-2.047-.667l-36.225 47.094 37.033 18.928a4.359 4.359 0 0 1 2.289-2.073z" class="cls-5" data-name="Caminho 137" transform="translate(-825.906 -708.464)"/>
                <path id="Caminho_138" d="M517.334-104.792l34.7-29.6-25.046-29.9a4.37 4.37 0 0 1-.89.477 4.351 4.351 0 0 1-1.873.29l-8.974 57.534a4.395 4.395 0 0 1 2.083 1.199z" class="cls-5" data-name="Caminho 138" transform="translate(-262.302 239.968)"/>
                <path id="Caminho_139" d="M1430.755 1061.5a4.373 4.373 0 0 1 5.747-.26l8.825-9.223a4.362 4.362 0 0 1-.86-4.231l-56.836-24.55a4.366 4.366 0 0 1-.291.459z" class="cls-5" data-name="Caminho 139" transform="translate(-781.547 -467.095)"/>
                <path id="Caminho_140" d="M1388.538 1423.905a4.3 4.3 0 0 1-1.322-2.379l-107.716 10.611a4.4 4.4 0 0 1-.538 1.536l73.259 37.445z" class="cls-5" data-name="Caminho 140" transform="translate(-717.019 -704.238)"/>
                <path id="Caminho_141" d="M1616.148 1218.48l-19.054 88.7 29.055 14.073a4.291 4.291 0 0 1 2.822-2.015l-12.179-100.732a4.359 4.359 0 0 1-.644-.026z" class="cls-5" data-name="Caminho 141" transform="translate(-906.436 -583.343)"/>
                <path id="Caminho_142" d="M1606.827 1456.846a4.36 4.36 0 0 1-.02-3.137l-28.877-13.987-12.729 59.253a4.4 4.4 0 0 1 1.693.756l40.676-41.649a4.354 4.354 0 0 1-.743-1.236z" class="cls-5" data-name="Caminho 142" transform="translate(-887.447 -715.072)"/>
                <path id="Caminho_143" d="M1313.975 1278.215l-23.355-15.325a4.378 4.378 0 0 1-3.924 1.558l-13.8 68.407a4.407 4.407 0 0 1 1.187.592z" class="cls-5" data-name="Caminho 143" transform="translate(-713.409 -609.785)"/>
                <path id="Caminho_144" d="M429.861-5.564L380.43 7.4l52.709-10.326a4.374 4.374 0 0 1-3.278-2.638z" class="cls-5" data-name="Caminho 144" transform="translate(-182.028 145.46)"/>
                <path id="Caminho_145" d="M1214.183 1125.476l18.339-61.993-82.491-19.458a4.379 4.379 0 0 1-1.143 1.634l62.1 80.473a4.352 4.352 0 0 1 3.2-.656z" class="cls-5" data-name="Caminho 145" transform="translate(-639.572 -479.472)"/>
                <path id="Caminho_146" d="M1060.56 931.905a4.359 4.359 0 0 1 1.825-.294l7.283-64.828a4.391 4.391 0 0 1-2.472-1.48l-59.063 40.742a4.449 4.449 0 0 1 .262.542 4.364 4.364 0 0 1 .024 3.124l49.986 24.021a4.358 4.358 0 0 1 2.155-1.827z" class="cls-5" data-name="Caminho 146" transform="translate(-555.766 -373.06)"/>
                <path id="Caminho_147" d="M967.9 33.856l29.816 76.009c.1-.03.206-.053.31-.075l-8.743-75.025z" class="cls-5" data-name="Caminho 147" transform="translate(-531.808 121.989)"/>
                <path id="Caminho_148" d="M873.993 899.3a4.361 4.361 0 0 1 1.48-.3l2.682-41.28-85.894-.5a4.391 4.391 0 0 1-.318 1.259l79.99 42.49a4.361 4.361 0 0 1 2.06-1.669z" class="cls-5" data-name="Caminho 148" transform="translate(-427.045 -368.251)"/>
                <path id="Caminho_149" d="M1461.147 1565.666l-37.23-19.029-24.928 32.409a4.311 4.311 0 0 1 1.149 2.179l60.871-13.664a4.361 4.361 0 0 1 .138-1.895z" class="cls-5" data-name="Caminho 149" transform="translate(-788.483 -778.729)"/>
                <path id="Caminho_150" d="M1278.3 1358.633a4.371 4.371 0 0 1 .3 1.44l107.589-10.6a4.39 4.39 0 0 1 .511-2.079l-69.386-45.53-39.946 55.314a4.367 4.367 0 0 1 .932 1.455z" class="cls-5" data-name="Caminho 150" transform="translate(-716.067 -632.991)"/>
                <path id="Caminho_151" d="M28.567 229.215c.076-.03.154-.052.23-.077l-11.29-52.71-107.126-35.194a4.378 4.378 0 0 1-.3.57l116.7 88.715a4.359 4.359 0 0 1 1.786-1.304z" class="cls-5" data-name="Caminho 151" transform="translate(98.023 58.055)"/>
                <path id="Caminho_152" d="M-89.157 53.328L17.521 88.375-2.161-3.517a4.387 4.387 0 0 1-3.931-1.6l-83.479 55.393a4.42 4.42 0 0 1 .223.474 4.361 4.361 0 0 1 .191 2.578z" class="cls-5" data-name="Caminho 152" transform="translate(97.813 145.192)"/>
                <path id="Caminho_153" d="M232.246 246.83L177.8 228.944l11.188 52.234a4.384 4.384 0 0 1 3.87 1.449l39.976-32.543a4.411 4.411 0 0 1-.384-.753 4.359 4.359 0 0 1-.204-2.501z" class="cls-5" data-name="Caminho 153" transform="translate(-61.383 5.832)"/>
                <path id="Caminho_154" d="M428.4 333.686a4.357 4.357 0 0 1 1.2-.282v-90.875l-97 13.1a4.392 4.392 0 0 1-.8 2.716l95.053 76.372a4.356 4.356 0 0 1 1.547-1.031z" class="cls-5" data-name="Caminho 154" transform="translate(-153.077 -2.256)"/>
                <path id="Caminho_155" d="M822.69 696.62l-7.723.683a4.374 4.374 0 0 1-5.606 4.185l-21.7 54.941z" class="cls-5" data-name="Caminho 155" transform="translate(-424.494 -272.625)"/>
                <path id="Caminho_156" d="M628.141-105.562a4.362 4.362 0 0 1 2.126-.271l9.715-45a4.39 4.39 0 0 1-1.739-1.041l-29.271 24.97 18.28 21.822a4.387 4.387 0 0 1 .889-.48z" class="cls-5" data-name="Caminho 156" transform="translate(-318.103 232.574)"/>
                <path id="Caminho_157" d="M264.083 74.428a4.375 4.375 0 0 1 .294 1.344l29.19.99 3.764-33.721a4.4 4.4 0 0 1-2.019-1.025L263.4 73.264a4.389 4.389 0 0 1 .683 1.164z" class="cls-5" data-name="Caminho 157" transform="translate(-112.35 117.13)"/>
                <path id="Caminho_158" d="M345.418 41.06a4.377 4.377 0 0 1-1.7.3l-3.758 33.655 90.552 3.071a4.413 4.413 0 0 1 .217-.9l-83.044-38.15a4.363 4.363 0 0 1-2.267 2.024z" class="cls-5" data-name="Caminho 158" transform="translate(-157.932 118.905)"/>
                <path id="Caminho_159" d="M133.4-1.73l74.263 108.153-23.638-52.3a4.378 4.378 0 0 1-4.71-7.038z" class="cls-5" data-name="Caminho 159" transform="translate(-34.944 143.177)"/>
                <path id="Caminho_160" d="M203.087 108.277a4.383 4.383 0 0 1 1.118-1.582L129.254-2.463a4.36 4.36 0 0 1-.534.257c-.1.038-.194.067-.292.1l19.781 92.355z" class="cls-5" data-name="Caminho 160" transform="translate(-31.984 143.613)"/>
                <path id="Caminho_161" d="M359.826.6l83.068 38.16a4.371 4.371 0 0 1 5.455-1.864l30.673-58.719a4.359 4.359 0 0 1-1.7-2.077 4.595 4.595 0 0 1-.122-.365L359.983-1.314A4.36 4.36 0 0 1 359.826.6z" class="cls-5" data-name="Caminho 161" transform="translate(-169.76 156.595)"/>
                <path id="Caminho_162" d="M430.2 144.892a4.385 4.385 0 0 1-3.223-1.905l-94.165 51.752c.032.07.067.138.1.211a4.363 4.363 0 0 1 .185.611l97.103-13.116z" class="cls-5" data-name="Caminho 162" transform="translate(-153.676 57.011)"/>
                <path id="Caminho_163" d="M600.1-164.019a4.4 4.4 0 0 1-.5-.921 4.365 4.365 0 0 1-.3-1.589l-52.311-4.707a4.394 4.394 0 0 1-1.195 2.29l25.04 29.892z" class="cls-5" data-name="Caminho 163" transform="translate(-280.489 244.102)"/>
                <path id="Caminho_164" d="M667.135-107.262l128.855-48.813.145-.257a4.4 4.4 0 0 1-.122-.719l-111.629-1.3-19.218 49.1a4.359 4.359 0 0 1 1.969 1.989z" class="cls-5" data-name="Caminho 164" transform="translate(-351.561 236.432)"/>
                <path id="Caminho_165" d="M522.07-58.434a4.41 4.41 0 0 1 .241.861l51.06-6.261a4.392 4.392 0 0 1 1.266-3.214l-18.275-21.814-34.715 29.615a4.382 4.382 0 0 1 .423.813z" class="cls-5" data-name="Caminho 165" transform="translate(-266.109 195.056)"/>
                <path id="Caminho_166" d="M520.441-17.5a4.388 4.388 0 0 1-2.036 3.632l46.212-9.049z" class="cls-5" data-name="Caminho 166" transform="translate(-264.179 155.792)"/>
                <path id="Caminho_167" d="M624.222 174l-45.7-30.292a4.348 4.348 0 0 1-3.007 1.615v37.442l48.189-6.509a4.39 4.39 0 0 1 .518-2.256z" class="cls-5" data-name="Caminho 167" transform="translate(-298.183 56.582)"/>
                <path id="Caminho_168" d="M1002.953-146.722a4.405 4.405 0 0 1-.651.325 4.424 4.424 0 0 1-.694.2l8.467 72.662 48.03 2.041z" class="cls-5" data-name="Caminho 168" transform="translate(-551.88 229.506)"/>
                <path id="Caminho_169" d="M1341.2 1199.922l48.311-66.895a4.363 4.363 0 0 1-.514-.529l-71.169 47.85a4.3 4.3 0 0 1 .246.514 4.375 4.375 0 0 1-.246 3.724z" class="cls-5" data-name="Caminho 169" transform="translate(-740.158 -532.149)"/>
                <path id="Caminho_170" d="M1145.382 932.358l31.838-50.258-22.379-16.533a4.366 4.366 0 0 1-3.352 1.465l-7.286 64.851a4.4 4.4 0 0 1 1.179.475z" class="cls-5" data-name="Caminho 170" transform="translate(-636.782 -373.217)"/>
                <path id="Caminho_171" d="M1242.208 1023.315a4.349 4.349 0 0 1-2.679-3.248l-87.169 8.343a4.3 4.3 0 0 1-.074.573l82.49 19.457z" class="cls-5" data-name="Caminho 171" transform="translate(-641.595 -465.207)"/>
                <path id="Caminho_172" d="M1314.021 1155.907l14.32-9.628 56.852-38.224a4.474 4.474 0 0 1-.236-.5 4.36 4.36 0 0 1-.258-2.208l-54.155-12.774-18.344 62.027a4.378 4.378 0 0 1 1.821 1.307z" class="cls-5" data-name="Caminho 172" transform="translate(-736.806 -508.379)"/>
                <path id="Caminho_173" d="M1066.863 756.647l-53.652-63.94c-.1.047-.194.094-.3.134a4.368 4.368 0 0 1-1.48.3l-4.276 65.824 58.459.337a4.394 4.394 0 0 1 1.249-2.655z" class="cls-5" data-name="Caminho 173" transform="translate(-555.185 -270.295)"/>
                <path id="Caminho_174" d="M892.767 562.022l-40.981 51.949a4.333 4.333 0 0 1 1.292 2.385l8.295-.734z" class="cls-5" data-name="Caminho 174" transform="translate(-462.676 -192.484)"/>
                <path id="Caminho_175" d="M617.664 285.9a4.383 4.383 0 0 1 4.221-5.982l7.831-46.038q-.2-.06-.4-.139l-48.977 95.1c.094.06.185.123.274.19l37.9-41.776a4.358 4.358 0 0 1-.849-1.355z" class="cls-5" data-name="Caminho 175" transform="translate(-301.055 2.977)"/>
                <path id="Caminho_176" d="M749.461 495.855a4.371 4.371 0 0 1 3.9.434l41.905-53.12a4.365 4.365 0 0 1-.649-5.568l-105.544-72.387a4.343 4.343 0 0 1-1.527 1.278z" class="cls-5" data-name="Caminho 176" transform="translate(-364.886 -75.304)"/>
                <path id="Caminho_177" d="M788.984 751.283l88.247-64.914a4.206 4.206 0 0 1-.559-1.47l-52.633 4.654-35.775 61.08a4.355 4.355 0 0 1 .72.65z" class="cls-5" data-name="Caminho 177" transform="translate(-424.855 -265.646)"/>
                <path id="Caminho_178" d="M576.748 323.943l48.977-95.1a4.285 4.285 0 0 1-1.91-2.706l-48.3 6.524v90.985a4.389 4.389 0 0 1 1.233.297z" class="cls-5" data-name="Caminho 178" transform="translate(-298.183 7.505)"/>
                <path id="Caminho_179" d="M932.229 605.836l-18.951-45.89-.039.018a4.366 4.366 0 0 1-3.455-.113l-31.858 54.392 52.061-4.6a4.383 4.383 0 0 1 2.242-3.807z" class="cls-5" data-name="Caminho 179" transform="translate(-478.24 -191.192)"/>
                <path id="Caminho_180" d="M617.6 387.242a4.381 4.381 0 0 0-4.2-2.777l-12.18-100.732a4.382 4.382 0 1 0-3.512-7.812l-37.366-42.2a4.381 4.381 0 1 0-7.038-5.1l-56.842-24.551a4.374 4.374 0 0 0-2.256-5.3l51.426-136.98a4.383 4.383 0 1 0-2.1-7.156L401.761-51.141a4.384 4.384 0 0 0 2.059-5.49 4.384 4.384 0 0 0-5.681-2.48 4.445 4.445 0 0 0-.584.286l-37.53-53.116a4.381 4.381 0 0 0 1.234-4.929 4.359 4.359 0 0 0-1.726-2.091l37.634-73.148.657.9-.295-1.6.226-.44-.31-.013L372.207-330.4a4.3 4.3 0 0 0 .413-.138 4.383 4.383 0 0 0 2.48-5.681 4.383 4.383 0 0 0-5.681-2.48 4.383 4.383 0 0 0-2.48 5.681 4.361 4.361 0 0 0 1.577 2l-30.9 54.526c-.114.034-.227.07-.339.114a4.366 4.366 0 0 0-1.459.941l-80.948-68.988a4.377 4.377 0 0 0 .5-4.123 4.383 4.383 0 0 0-5.681-2.48 4.383 4.383 0 0 0-2.48 5.681 4.361 4.361 0 0 0 1.711 2.082l-34.02 65.438a4.365 4.365 0 0 0-3.253-.025 4.377 4.377 0 0 0-2.706 3.286l-52.311-4.707a4.367 4.367 0 0 0-.3-1.589 4.383 4.383 0 0 0-5.681-2.48 4.383 4.383 0 0 0-2.48 5.681 4.373 4.373 0 0 0 3.009 2.646l-8.974 57.534a4.358 4.358 0 0 0-1.872.29 4.381 4.381 0 0 0-2.685 4.979L80-197.1a4.382 4.382 0 0 0-5.659-2.432 4.383 4.383 0 0 0-2.48 5.681 4.384 4.384 0 0 0 .607 1.069l-31.923 31.266a4.383 4.383 0 0 0-4.436-.738 4.379 4.379 0 0 0-1.094.625l-46.54-49.471a4.38 4.38 0 0 0 .8-4.5 4.383 4.383 0 0 0-5.681-2.48 4.383 4.383 0 0 0-2.48 5.681 4.369 4.369 0 0 0 .222.474l-83.479 55.391a4.384 4.384 0 0 0-5.014-1.33 4.383 4.383 0 0 0-2.48 5.681 4.383 4.383 0 0 0 5.681 2.48 4.355 4.355 0 0 0 1.626-1.12L14.4-62.086a4.373 4.373 0 0 0-.237 3.706 4.384 4.384 0 0 0 5.681 2.48 4.384 4.384 0 0 0 2.48-5.681 4.439 4.439 0 0 0-.316-.635l40-32.56a4.382 4.382 0 0 0 4.8 1.088 4.365 4.365 0 0 0 1.453-.935l95.071 76.385a4.375 4.375 0 0 0-.427 4.017 4.383 4.383 0 0 0 5.681 2.48 4.383 4.383 0 0 0 2.48-5.681 4.368 4.368 0 0 0-.85-1.357l37.9-41.776a4.376 4.376 0 0 0 4.23.58l-.365.174L273.9 69.571a4.373 4.373 0 0 0 .269 7.664l-22.032 55.777a4.383 4.383 0 1 0 2.436 6.607l79.989 42.49a4.379 4.379 0 0 0 7.8 3.942l49.986 24.021a4.37 4.37 0 0 0 6.376 5.267l62.115 80.5a4.382 4.382 0 0 0 1.717 7.32l-13.8 68.406a4.383 4.383 0 1 0 1.052 8.429l.048-.021L479 425.037l15.408 23.824a4.382 4.382 0 1 0 7.388 3.113l60.976-13.688c.02.059.036.118.059.176a4.383 4.383 0 1 0 7.276-4.6l40.647-41.619a4.381 4.381 0 0 0 6.838-5zm-117.653 61.22a4.379 4.379 0 0 0-4.893-.1l-17.469-27.011-27-41.75a4.355 4.355 0 0 0 .948-.825l73.23 37.43zM339.293 179.473l2.685-41.328 58.506.337a4.379 4.379 0 0 0 .284 1.221 4.52 4.52 0 0 0 .262.542l-59.063 40.742a4.39 4.39 0 0 0-2.674-1.514zm-84.014-42.637a4.256 4.256 0 0 0-.613-1.879l88.247-64.913a4.388 4.388 0 0 0 2.586 1.415l-4.279 65.872zm-33.264-410.1l-18.862 48.193 9.573-44.348a4.362 4.362 0 0 0 2.127-.271 4.38 4.38 0 0 0 2.756-3.625zm30.873-69.6a4.366 4.366 0 0 0 1.459-.941l80.947 68.983a4.395 4.395 0 0 0-.774 2.066l-111.325-1.3 26.88-68.68a4.361 4.361 0 0 0 2.813-.131zM542.4 57.517a4.362 4.362 0 0 0 .247 1.492l-65.853 30.036a4.381 4.381 0 0 0-5.4-1.9l-19.72-39.126zM567 432.479c-.094 0-.189 0-.283.006l-1.648-63.01a4.329 4.329 0 0 0 3.229-2.083l11.488 5.564zm-20.016-163.362l-3.494-18.655c.134-.038.267-.082.4-.134a4.359 4.359 0 0 0 1.985-1.561l12.245 7.01 5.689 103.169zm-4.29-18.508l12.22 65.241 8.439 45.062a4.47 4.47 0 0 0-.4.134 4.358 4.358 0 0 0-1.823 1.35l-69.356-45.51 48.29-66.867a4.38 4.38 0 0 0 2.63.591zm25.96 116.053a4.367 4.367 0 0 0-2.047-5.405l32.365-77.592-19.007 88.475zm27.555-85.609a4.365 4.365 0 0 0 2.028 2.269l-32.377 77.623a4.375 4.375 0 0 0-1.142-.2l-5.762-104.492 37.344 21.384a4.368 4.368 0 0 0-.09 3.417zm.5-4.12l-37.8-21.641-1.116-20.238a4.263 4.263 0 0 0 1.943-.8l37.366 42.2a4.39 4.39 0 0 0-.402.48zm-42.284-42.781a4.4 4.4 0 0 0 2.559.948l1.087 19.713-11.791-6.75a4.359 4.359 0 0 0-.68-4.687zm-16.285 10.7l-54.11-12.763 7.42-25.081a4.365 4.365 0 0 0 3.874-1.126l43.414 37.807a4.4 4.4 0 0 0-.602 1.163zM400.8 211.061a4.331 4.331 0 0 0-1.481-2.782l31.831-50.244 57.4 42.409a4.392 4.392 0 0 0-.634 2.279zM211.691-68.337l7.821-45.981a4.362 4.362 0 0 0 2.043-.278 4.392 4.392 0 0 0 .906-.49l12.256 11.609-22.262 35.386a4.408 4.408 0 0 0-.764-.246zM39.874-154.366a4.384 4.384 0 0 0 2.184-3.254l29.126.988-6.084 54.485a4.358 4.358 0 0 0-1.494.3zm26.036 52.275l6.085-54.509 90.616 3.073a4.372 4.372 0 0 0 .294 1.344c.02.05.044.1.066.144l-94.178 51.755a4.383 4.383 0 0 0-2.883-1.807zm403 194.914a4.378 4.378 0 0 0 .259.537l-60.956 41.94a4.391 4.391 0 0 0-3.208-1.574l-3.1-54.651 66.727 11.789a4.357 4.357 0 0 0 .283 1.959zm-64.71 40.948a4.263 4.263 0 0 0-1.842.731l-53.573-63.843a4.364 4.364 0 0 0 .847-.822l51.455 9.091zM350.1 69.1a4.385 4.385 0 0 0 .452-1.624l41.237-20.966 3.993-2.03a4.385 4.385 0 0 0 3.465 2.043l1.792 31.577zm45.313-25.346v.008l-3.976 2.021-40.911 20.8a4.331 4.331 0 0 0-1.211-2.511l14.914-34.922 31.031 11.879a4.36 4.36 0 0 0 .152 2.722zm73.361 46.314l-66.916-11.826-1.8-31.749a4.336 4.336 0 0 0 2.8-1.527l66.283 44.174a4.405 4.405 0 0 0-.368.925zM399.32-50.67l-.3 88.468a4.341 4.341 0 0 0-3.478 2.472L364.549 28.4 398.4-50.858a4.391 4.391 0 0 0 .92.188zm-35.527 78.781L327.736 14.3a4.346 4.346 0 0 0-.691-3.448L369.38-27.2l27.387-24.616a4.381 4.381 0 0 0 .887.637zM337.644-268.1l-8.167 39.4-5.048 24.351a4.363 4.363 0 0 0-2.09.274 4.372 4.372 0 0 0-2.635 2.969l-21.4-3.543 38.719-63.683a4.456 4.456 0 0 0 .621.232zm-74.7 185.777l5.6-69.706a4.362 4.362 0 0 0 1.547-.3 4.361 4.361 0 0 0 2.065-1.671l22.744 10.482-31.1 61.435a4.4 4.4 0 0 0-.852-.241zm9.59-72.388a4.364 4.364 0 0 0 .042-3.3 4.371 4.371 0 0 0-.4-.779l48.58-38.195a4.363 4.363 0 0 0 .85.692l-26.346 52.05zm47.035-45.6a4.357 4.357 0 0 0 .288 1.914 4.367 4.367 0 0 0 .4.777L302.9-183.984l-31.24 24.541a4.357 4.357 0 0 0-.551-.48l26.742-43.983zm-49.155 39.967a4.366 4.366 0 0 0-3.52-.145 4.363 4.363 0 0 0-1.273.776l-60.5-57.8a4.4 4.4 0 0 0 .8-1.609l91.06 15.077zM203.3-216.158a4.363 4.363 0 0 0 1.272-.775l60.5 57.8a4.395 4.395 0 0 0-.937 2.428l-50.367 1.3-10.9-60.614a4.421 4.421 0 0 0 .432-.139zm60.855 60.266a4.364 4.364 0 0 0 .268 1.083c.042.108.091.21.141.312l-41.28 32.969a4.387 4.387 0 0 0-3.7-1.515l-5.672-31.553zm-40.116 35.614a4.373 4.373 0 0 0-.288-.587l41.232-32.935a4.338 4.338 0 0 0 .852.865l-30.678 48.758-12.073-11.435a4.381 4.381 0 0 0 .951-4.665zM266.52-152.5a4.414 4.414 0 0 0 1 .366l-5.392 69.748a4.358 4.358 0 0 0-1.533.3 4.365 4.365 0 0 0-1.287.789l-23.551-22.306zM321.855 9.28c-.061.024-.118.054-.177.08l-33.565-49.71-23.14-34.27a4.386 4.386 0 0 0 1.457-2.272l77.019 12.868L324.454 9.1a4.359 4.359 0 0 0-2.599.18zm-55.746-89.26a4.354 4.354 0 0 0-1.584-1.737l31.11-61.462 57.412 26.453a4.361 4.361 0 0 0-.079 2.674zm87.276-37.481L296-143.9l26.333-52.024a4.359 4.359 0 0 0 2.824.137l30.05 76.606a4.359 4.359 0 0 0-1.822 1.72zM328.021-201.6a4.372 4.372 0 0 0-2.8-2.588l3.681-17.755 9.536-46a4.4 4.4 0 0 0 .542.02l8.452 72.533-21.156-.9a4.382 4.382 0 0 0 1.745-5.31zm6.959-68.7a4.354 4.354 0 0 0 1.344 1.553l-38.88 63.948-91.381-15.13a4.343 4.343 0 0 0-.143-1.481zm-132.91 54.428l10.875 60.493-41.611 1.074a4.365 4.365 0 0 0-.268-1.083 4.358 4.358 0 0 0-1.7-2.077l30.673-58.719a4.374 4.374 0 0 0 2.031.312zM171.355-153.5l41.735-1.077 5.694 31.673a4.431 4.431 0 0 0-.43.144 4.355 4.355 0 0 0-1.811 1.333l-45.7-30.292a4.391 4.391 0 0 0 .512-1.781zm41.814 85.79l22.148-35.2 23.434 22.194a4.384 4.384 0 0 0-.879 3.427L214.717-65.9a4.353 4.353 0 0 0-1.548-1.807zm1.822 2.568l43.091-11.367c.012.032.02.065.033.1a4.384 4.384 0 0 0 5.681 2.48 4.472 4.472 0 0 0 .5-.24l51.762 76.653 4.91 7.272a4.352 4.352 0 0 0-.675.575L214.669-62.11a4.366 4.366 0 0 0 .322-3.029zm112.5 80.212l35.986 13.783-14.808 34.67a4.375 4.375 0 0 0-3.882-.537l-18.97-45.933a4.374 4.374 0 0 0 1.671-1.98zm81.438 121.43a4.442 4.442 0 0 0-.259-.537l60.961-41.937a4.36 4.36 0 0 0 .689.661l-39.392 62.18-22.333-16.5a4.372 4.372 0 0 0 .334-3.867zm81.765 62.128a4.364 4.364 0 0 0-1.667 1.164l-57.446-42.442L471 95.122a4.376 4.376 0 0 0 2.337.47l17.811 102.889a4.558 4.558 0 0 0-.454.149zM470.671 87.509a4.351 4.351 0 0 0-1.081.958L403.311 44.3a4.4 4.4 0 0 0 .477-1.293l46.93 4.912zM403.874 42.2a4.371 4.371 0 0 0-4.048-4.418l.3-88.451a4.371 4.371 0 0 0 .824-.153l49.332 97.88zm-8.215-95.632a4.384 4.384 0 0 0 .567 1.013l-69.7 62.65a4.39 4.39 0 0 0-1.3-.883l19.025-73.242 51.123 8.541a4.363 4.363 0 0 0 .285 1.924zm-52.007-11.379l-77.089-12.88a4.344 4.344 0 0 0-.158-1.536l86.858-34.073a4.37 4.37 0 0 0 2.426 2.149zm12.309-54.667l-29.816-76.009 21.383.909 8.743 75.025c-.104.023-.207.045-.31.075zm-16.177-148.541a4.42 4.42 0 0 0 .694-.2 4.4 4.4 0 0 0 .651-.325l55.152 75.232-48.03-2.041zm-5.275-3.93a4.394 4.394 0 0 0 .122.719l-.145.257-128.855 48.812a4.359 4.359 0 0 0-1.969-1.989l19.218-49.1zm-177.948-6.516l52.311 4.707a4.366 4.366 0 0 0 .3 1.589 4.4 4.4 0 0 0 .5.921l-29.266 24.966-25.04-29.892a4.394 4.394 0 0 0 1.195-2.292zm53.636 7.833a4.39 4.39 0 0 0 1.739 1.041l-9.715 45a4.362 4.362 0 0 0-2.126.271 4.39 4.39 0 0 0-.89.477l-18.28-21.822zm-11.613 47.31a4.392 4.392 0 0 0-1.266 3.214l-51.06 6.261a4.408 4.408 0 0 0-.241-.861 4.386 4.386 0 0 0-.423-.814l34.715-29.615zm-52.265 10.282l44.176-5.416-46.212 9.049a4.388 4.388 0 0 0 2.036-3.633zm51.174-5.96c.036.122.075.244.122.365a4.358 4.358 0 0 0 1.7 2.077l-30.673 58.719a4.365 4.365 0 0 0-3.261-.028 4.361 4.361 0 0 0-2.194 1.892l-83.064-38.163a4.36 4.36 0 0 0 .157-1.913zm-34.639 63.761a4.417 4.417 0 0 0-.217.9l-90.552-3.071 3.756-33.653a4.377 4.377 0 0 0 1.7-.3 4.363 4.363 0 0 0 2.267-2.025zM75.038-191.16l-3.764 33.721-29.19-.99a4.375 4.375 0 0 0-.294-1.344 4.388 4.388 0 0 0-.679-1.164l31.908-31.248a4.4 4.4 0 0 0 2.019 1.025zm-41.409 34.588a4.38 4.38 0 0 0 5.507 2.538l23.638 52.3-74.262-108.15 45.915 48.812a4.38 4.38 0 0 0-.798 4.5zm-46.837-53.352a4.365 4.365 0 0 0 .534-.257l74.952 109.157a4.383 4.383 0 0 0-1.118 1.582L6.282-117.471-13.5-209.826c.1-.031.2-.06.292-.098zm82.5 110.555a1.931 1.931 0 0 0-.1-.211l94.164-51.752a4.385 4.385 0 0 0 3.223 1.905v37.552L69.473-98.758a4.371 4.371 0 0 0-.185-.611zm98.1-50.057a4.367 4.367 0 0 0 1.2-.282 4.355 4.355 0 0 0 1.811-1.333l45.7 30.292a4.391 4.391 0 0 0-.517 2.256l-48.189 6.509zm48.3 31.735a4.371 4.371 0 0 0 .186.616 4.358 4.358 0 0 0 1.724 2.091l-48.977 95.1a4.389 4.389 0 0 0-1.232-.3v-90.985zm-46.351 98.178l48.977-95.1q.2.08.4.139l-7.831 46.038a4.371 4.371 0 0 0-1.741.3 4.383 4.383 0 0 0-2.48 5.681 4.359 4.359 0 0 0 .85 1.357l-37.9 41.776a4.223 4.223 0 0 0-.275-.191zm44.9-41.908l105.548 72.387a4.365 4.365 0 0 0 .649 5.568l-41.905 53.12a4.371 4.371 0 0 0-3.9-.434L212.717-60.143a4.343 4.343 0 0 0 1.527-1.278zm65.988 133.149a4.357 4.357 0 0 0-1.062-1.572l40.981-51.949-31.395 53.6-8.295.734a4.386 4.386 0 0 0-.229-.813zm41.372-54.4a4.366 4.366 0 0 0 3.455.113l.039-.018 18.951 45.89a4.383 4.383 0 0 0-2.242 3.8l-52.061 4.6zm20.273 50.594a4.205 4.205 0 0 0 .559 1.47l-88.247 64.914a4.354 4.354 0 0 0-.719-.65l35.775-61.08zm4.432 3.59a4.368 4.368 0 0 0 1.48-.3c.1-.04.2-.087.3-.134l53.652 63.94a4.395 4.395 0 0 0-1.245 2.652l-58.459-.337zm58.457 70.973a4.366 4.366 0 0 0 3.352-1.465l22.379 16.533-31.838 50.257a4.4 4.4 0 0 0-1.179-.474zm-3.942 69.387l87.169-8.343a4.349 4.349 0 0 0 2.679 3.248l-7.432 25.123-82.489-19.457a4.316 4.316 0 0 0 .074-.571zm82.979 20.994l54.155 12.774a4.358 4.358 0 0 0 .258 2.208 4.439 4.439 0 0 0 .235.5l-56.852 38.224-14.32 9.628a4.377 4.377 0 0 0-1.826-1.306zm-15.825 64.516a4.325 4.325 0 0 0-.246-.514l71.169-47.85a4.354 4.354 0 0 0 .514.529L491.1 316.442l-23.372-15.336a4.375 4.375 0 0 0 .243-3.724zm23.325 20.161l69.386 45.53a4.389 4.389 0 0 0-.511 2.079l-107.589 10.6a4.359 4.359 0 0 0-1.232-2.894zM452 378.1a4.4 4.4 0 0 0 .538-1.536l107.715-10.611a4.305 4.305 0 0 0 1.322 2.379l-36.315 47.217zm110.216-9.275a4.388 4.388 0 0 0 2.047.667l1.65 63.1a4.412 4.412 0 0 0-.6.182 4.361 4.361 0 0 0-2.29 2.072l-37.033-18.928zm5.594 63.743l12.729-59.253 28.878 13.987a4.351 4.351 0 0 0 .763 4.373l-40.68 41.653a4.4 4.4 0 0 0-1.689-.756zm44.781-48.009a4.292 4.292 0 0 0-2.822 2.014L580.715 372.5l19.054-88.7a4.367 4.367 0 0 0 .643.025zm-59.615-155.2a4.362 4.362 0 0 0 .86 4.23l-8.825 9.224a4.373 4.373 0 0 0-5.747.261l-43.415-37.806a4.382 4.382 0 0 0 .291-.459zm-59.528-30.876a4.365 4.365 0 0 0-1.5-.145l-17.81-102.885a4.506 4.506 0 0 0 .458-.15 4.38 4.38 0 0 0 2.534-5.521l65.857-30.036a4.363 4.363 0 0 0 1.888 1.762zm49.6-143.2a4.4 4.4 0 0 0-.56 1.426l-91.249-9.551L402.474-49.6zM396.892-58.358a4.386 4.386 0 0 0-1.387 2.211l-51.052-8.53 12.019-46.27a4.356 4.356 0 0 0 2.306-.242 4.365 4.365 0 0 0 .584-.286zm-38.08-60.973a4.374 4.374 0 0 0-1.738-.316l-8.728-74.9 48.11 2.045zm10.409-211.294a4.372 4.372 0 0 0 2.19.369l24.976 135.718-54.606-74.487a4.38 4.38 0 0 0 1.176-4.878 4.382 4.382 0 0 0-4.309-2.774zm-121.083-9.386l-25.808 65.942-4.71-.055a4.364 4.364 0 0 0-.288-1.247 4.358 4.358 0 0 0-1.711-2.082zm-96.156 65.122a4.352 4.352 0 0 0 1.873-.29 4.369 4.369 0 0 0 .89-.477l25.046 29.9-34.7 29.6a4.395 4.395 0 0 0-2.081-1.2zm-14.092 63.453a4.375 4.375 0 0 0 3.279 2.638l-52.71 10.322zm-156.112.182a4.387 4.387 0 0 0 3.931 1.6l19.682 91.89-106.678-35.047a4.361 4.361 0 0 0-.191-2.578 4.42 4.42 0 0 0-.223-.474zm-83.621 59.782a4.375 4.375 0 0 0 .3-.57l107.13 35.194 11.29 52.71c-.076.025-.154.047-.23.077a4.36 4.36 0 0 0-1.788 1.3zm123.379 88.6a4.384 4.384 0 0 0-3.87-1.449L6.478-116.555 60.92-98.669a4.359 4.359 0 0 0 .208 2.5 4.409 4.409 0 0 0 .384.753zm47.25-32.368a4.392 4.392 0 0 0 .8-2.716l97-13.1v90.875a4.357 4.357 0 0 0-1.2.282 4.355 4.355 0 0 0-1.546 1.033zM277.75 77.409a4.382 4.382 0 0 0 2.78-4.062l7.723-.683-35.031 59.809 21.7-54.941a4.356 4.356 0 0 0 2.828-.123zm-22.794 61.5a4.388 4.388 0 0 0 .318-1.259l85.894.5-2.682 41.28a4.347 4.347 0 0 0-3.541 1.974zm87.756 46.417a4.363 4.363 0 0 0-.024-3.124 4.446 4.446 0 0 0-.262-.542l59.064-40.742a4.391 4.391 0 0 0 2.472 1.48l-7.283 64.828a4.356 4.356 0 0 0-3.98 2.121zm56.663 29.535a4.38 4.38 0 0 0 1.143-1.634l82.491 19.458-18.339 61.993a4.351 4.351 0 0 0-3.2.656zm63.971 88.475a4.379 4.379 0 0 0 3.924-1.558l23.353 15.322-39.888 55.232a4.412 4.412 0 0 0-1.187-.592zm38.368 147.832a4.312 4.312 0 0 0-1.149-2.179l24.928-32.409 37.23 19.029a4.358 4.358 0 0 0-.138 1.894z" class="cls-6" data-name="Caminho 180" transform="translate(109.943 351.331)"/>
            </g>
        </g>
    </g>
</svg>
